<svg width="20" height="20" viewBox="0 0 20 20" fill="none" xmlns="http://www.w3.org/2000/svg">
<path fill-rule="evenodd" clip-rule="evenodd" d="M10.5494 1.7522C10.246 1.45377 9.75403 1.45377 9.45061 1.7522L2.23663 8.8476C1.75548 9.32084 1.50861 9.97724 1.5608 10.6445L2.11776 17.766C2.1489 18.1642 2.48644 18.4716 2.89243 18.4716H7.66912V14.6507C7.66912 13.3845 8.71269 12.3581 10 12.3581C11.2873 12.3581 12.3309 13.3845 12.3309 14.6507V18.4716H17.1076C17.5136 18.4716 17.8511 18.1642 17.8822 17.766L18.4392 10.6445C18.4914 9.97724 18.2445 9.32084 17.7634 8.8476L10.5494 1.7522ZM8.35182 0.671476C9.26209 -0.223825 10.7379 -0.223825 11.6482 0.671476L18.8622 7.76688C19.6641 8.55561 20.0755 9.6496 19.9885 10.7617L19.4316 17.8833C19.3382 19.0777 18.3255 20 17.1076 20H12.3309C11.4727 20 10.777 19.3157 10.777 18.4716V14.6507C10.777 14.2286 10.4291 13.8865 10 13.8865C9.5709 13.8865 9.22304 14.2286 9.22304 14.6507V18.4716C9.22304 19.3157 8.52733 20 7.66912 20H2.89243C1.67446 20 0.661834 19.0777 0.56842 17.8833L0.0114563 10.7617C-0.0755226 9.64961 0.335936 8.55561 1.13784 7.76688L8.35182 0.671476Z" fill="white"/>
</svg>
