<svg width="19" height="19" viewBox="0 0 19 19" fill="none" xmlns="http://www.w3.org/2000/svg">
<path fill-rule="evenodd" clip-rule="evenodd" d="M10.0219 1.66459C9.73367 1.38108 9.26633 1.38108 8.97808 1.66459L2.1248 8.40522C1.66771 8.8548 1.43318 9.47838 1.48276 10.1123L2.01187 16.8777C2.04145 17.256 2.36212 17.548 2.74781 17.548H7.28567V13.9181C7.28567 12.7153 8.27706 11.7402 9.5 11.7402C10.7229 11.7402 11.7143 12.7153 11.7143 13.9181V17.548H16.2522C16.6379 17.548 16.9585 17.256 16.9881 16.8777L17.5172 10.1123C17.5668 9.47838 17.3323 8.8548 16.8752 8.40522L10.0219 1.66459ZM7.93423 0.637902C8.79898 -0.212634 10.201 -0.212634 11.0658 0.637902L17.919 7.37854C18.6809 8.12783 19.0717 9.16712 18.9891 10.2237L18.46 16.9891C18.3713 18.1238 17.4093 19 16.2522 19H11.7143C10.899 19 10.2381 18.3499 10.2381 17.548V13.9181C10.2381 13.5172 9.90765 13.1922 9.5 13.1922C9.09235 13.1922 8.76189 13.5172 8.76189 13.9181V17.548C8.76189 18.3499 8.10096 19 7.28567 19H2.74781C1.59074 19 0.628742 18.1238 0.539999 16.9891L0.0108835 10.2237C-0.0717464 9.16712 0.319139 8.12783 1.08095 7.37854L7.93423 0.637902Z" fill="white"/>
</svg>
