<svg width="22" height="20" viewBox="0 0 22 20" fill="none" xmlns="http://www.w3.org/2000/svg">
<path fill-rule="evenodd" clip-rule="evenodd" d="M9.15237 3.00444C7.44536 1.22074 4.69969 1.22074 2.99268 3.00444C1.25885 4.81618 1.25885 7.77287 2.99268 9.5846L11 17.9517L19.0073 9.5846C20.7412 7.77287 20.7412 4.81618 19.0073 3.00444C17.3003 1.22074 14.5546 1.22074 12.8476 3.00444L11.6158 4.29166C11.4559 4.45872 11.2331 4.55343 11 4.55343C10.7669 4.55343 10.5441 4.45872 10.3842 4.29166L9.15237 3.00444ZM1.76116 1.86131C4.13621 -0.620438 8.00885 -0.620438 10.3839 1.86131L11 2.5051L11.6161 1.86132C13.9912 -0.620438 17.8638 -0.620438 20.2388 1.86131C22.5871 4.31503 22.5871 8.27401 20.2388 10.7277L11.6158 19.7382C11.4559 19.9053 11.2331 20 11 20C10.7669 20 10.5441 19.9053 10.3842 19.7382L1.76116 10.7277C-0.587053 8.27401 -0.587055 4.31503 1.76116 1.86131Z" fill="white"/>
</svg>
