<svg width="19" height="19" viewBox="0 0 19 17" fill="none" xmlns="http://www.w3.org/2000/svg">
<path fill-rule="evenodd" clip-rule="evenodd" d="M7.90432 2.55378C6.43009 1.03763 4.05882 1.03763 2.58459 2.55378C1.08719 4.09375 1.08719 6.60694 2.58459 8.14691L9.5 15.2589L16.4154 8.14691C17.9128 6.60694 17.9128 4.09375 16.4154 2.55378C14.9412 1.03763 12.5699 1.03763 11.0957 2.55378L10.0318 3.64791C9.89372 3.78991 9.70132 3.87041 9.5 3.87041C9.29868 3.87041 9.10628 3.78991 8.96821 3.64791L7.90432 2.55378ZM1.521 1.58212C3.57218 -0.527373 6.91673 -0.527373 8.96791 1.58212L9.5 2.12934L10.0321 1.58212C12.0833 -0.527372 15.4278 -0.527373 17.479 1.58212C19.507 3.66778 19.507 7.03291 17.479 9.11857L10.0318 16.7775C9.89371 16.9195 9.70132 17 9.5 17C9.29868 17 9.10628 16.9195 8.9682 16.7775L1.521 9.11857C-0.507001 7.03291 -0.507002 3.66778 1.521 1.58212Z" fill="white"/>
</svg>
