<svg width="25" height="25" viewBox="0 0 25 25" fill="none" xmlns="http://www.w3.org/2000/svg">
<path fill-rule="evenodd" clip-rule="evenodd" d="M10.9375 3.125C6.62278 3.125 3.125 6.62278 3.125 10.9375C3.125 15.2522 6.62278 18.75 10.9375 18.75C12.8135 18.75 14.535 18.0888 15.8818 16.9867L20.5413 21.6462C20.8464 21.9513 21.3411 21.9513 21.6462 21.6462C21.9513 21.3411 21.9513 20.8464 21.6462 20.5413L16.9867 15.8818C18.0888 14.535 18.75 12.8135 18.75 10.9375C18.75 6.62278 15.2522 3.125 10.9375 3.125ZM4.6875 10.9375C4.6875 7.48572 7.48572 4.6875 10.9375 4.6875C14.3893 4.6875 17.1875 7.48572 17.1875 10.9375C17.1875 14.3893 14.3893 17.1875 10.9375 17.1875C7.48572 17.1875 4.6875 14.3893 4.6875 10.9375Z" fill="white"/>
</svg>
