<svg width="23" height="23" viewBox="0 0 20 20" fill="none" xmlns="http://www.w3.org/2000/svg">
<path fill-rule="evenodd" clip-rule="evenodd" d="M8.75 2.5C5.29822 2.5 2.5 5.29822 2.5 8.75C2.5 12.2018 5.29822 15 8.75 15C10.2508 15 11.628 14.471 12.7055 13.5893L16.4331 17.3169C16.6771 17.561 17.0729 17.561 17.3169 17.3169C17.561 17.0729 17.561 16.6771 17.3169 16.4331L13.5893 12.7055C14.471 11.628 15 10.2508 15 8.75C15 5.29822 12.2018 2.5 8.75 2.5ZM3.75 8.75C3.75 5.98858 5.98858 3.75 8.75 3.75C11.5114 3.75 13.75 5.98858 13.75 8.75C13.75 11.5114 11.5114 13.75 8.75 13.75C5.98858 13.75 3.75 11.5114 3.75 8.75Z" fill="white"/>
</svg>
