<svg width="15" height="15" viewBox="0 0 15 15" fill="none" xmlns="http://www.w3.org/2000/svg">
<path fill-rule="evenodd" clip-rule="evenodd" d="M10.6912 11.4683C9.42322 12.5379 7.79428 13.0823 6.13799 12.9899C4.4817 12.8975 2.92341 12.1754 1.78227 10.9714C0.641137 9.76736 0.00352042 8.17261 1.45342e-05 6.51375C-0.00349135 4.85488 0.627379 3.25745 1.76342 2.04863C2.89945 0.839807 4.45468 0.111074 6.11056 0.0116855C7.76645 -0.0877025 9.39767 0.449776 10.6701 1.51404C11.9426 2.5783 12.76 4.0888 12.955 5.73618C13.1499 7.38355 12.7076 9.04311 11.7187 10.375L14.6062 13.2625C14.6783 13.3315 14.7359 13.4143 14.7756 13.5059C14.8154 13.5975 14.8364 13.6961 14.8375 13.7959C14.8386 13.8958 14.8198 13.9948 14.7821 14.0873C14.7444 14.1797 14.6887 14.2637 14.6181 14.3344C14.5475 14.405 14.4635 14.4608 14.3711 14.4986C14.2787 14.5363 14.1796 14.5552 14.0798 14.5542C13.98 14.5532 13.8813 14.5322 13.7897 14.4926C13.6981 14.4529 13.6153 14.3954 13.5462 14.3233L10.6912 11.4675V11.4683ZM11.6328 6.50081C11.6328 7.86225 11.092 9.16794 10.1293 10.1306C9.16664 11.0933 7.86096 11.6341 6.49952 11.6341C5.13807 11.6341 3.83239 11.0933 2.8697 10.1306C1.90701 9.16794 1.36618 7.86225 1.36618 6.50081C1.36618 5.13936 1.90701 3.83368 2.8697 2.87099C3.83239 1.90831 5.13807 1.36747 6.49952 1.36747C7.86096 1.36747 9.16664 1.90831 10.1293 2.87099C11.092 3.83368 11.6328 5.13936 11.6328 6.50081Z" fill="black"/>
</svg>
