<svg width="20" height="20" viewBox="0 0 20 20" fill="none" xmlns="http://www.w3.org/2000/svg">
<g clip-path="url(#clip0_90_714)">
<path fill-rule="evenodd" clip-rule="evenodd" d="M13.1912 13.8008C11.9232 14.8705 10.2943 15.4148 8.63799 15.3224C6.9817 15.2301 5.42341 14.5079 4.28227 13.3039C3.14114 12.0999 2.50352 10.5051 2.50001 8.84627C2.49651 7.1874 3.12738 5.58997 4.26342 4.38115C5.39945 3.17233 6.95468 2.44359 8.61056 2.34421C10.2664 2.24482 11.8977 2.7823 13.1701 3.84656C14.4426 4.91082 15.26 6.42132 15.455 8.0687C15.6499 9.71607 15.2076 11.3756 14.2187 12.7075L17.1062 15.595C17.1783 15.664 17.2359 15.7468 17.2756 15.8384C17.3154 15.93 17.3364 16.0286 17.3375 16.1284C17.3386 16.2283 17.3198 16.3273 17.2821 16.4198C17.2444 16.5123 17.1887 16.5963 17.1181 16.6669C17.0475 16.7375 16.9635 16.7933 16.8711 16.8311C16.7787 16.8688 16.6796 16.8878 16.5798 16.8867C16.48 16.8857 16.3813 16.8647 16.2897 16.8251C16.1981 16.7854 16.1153 16.7279 16.0462 16.6558L13.1912 13.8V13.8008ZM14.1328 8.83333C14.1328 10.1948 13.592 11.5005 12.6293 12.4631C11.6666 13.4258 10.361 13.9667 8.99952 13.9667C7.63807 13.9667 6.33239 13.4258 5.3697 12.4631C4.40701 11.5005 3.86618 10.1948 3.86618 8.83333C3.86618 7.47188 4.40701 6.1662 5.3697 5.20351C6.33239 4.24083 7.63807 3.69999 8.99952 3.69999C10.361 3.69999 11.6666 4.24083 12.6293 5.20351C13.592 6.1662 14.1328 7.47188 14.1328 8.83333Z" fill="black"/>
</g>
<defs>
<clipPath id="clip0_90_714">
<rect width="20" height="20" fill="white"/>
</clipPath>
</defs>
</svg>