<svg width="10" height="10" viewBox="0 0 10 10" fill="none" xmlns="http://www.w3.org/2000/svg">
<path d="M8.03783 0.174991L4.5206 3.69221L1.15334 0.324952C1.04861 0.220215 0.904669 0.163263 0.75319 0.166622C0.601712 0.169981 0.455101 0.233376 0.345614 0.342862C0.236128 0.452349 0.172734 0.598959 0.169375 0.750438C0.166016 0.901916 0.222968 1.04585 0.327704 1.15059L3.69497 4.51785L0.17499 8.03783C0.0655033 8.14731 0.00210462 8.29392 -0.00125424 8.4454C-0.00461309 8.59688 0.0523427 8.74082 0.157079 8.84556C0.261816 8.95029 0.405754 9.00724 0.557232 9.00389C0.708711 9.00053 0.855321 8.93713 0.964808 8.82765L4.48478 5.30767L7.84941 8.6723C7.95415 8.77703 8.09808 8.83398 8.24956 8.83062C8.40104 8.82727 8.54765 8.76387 8.65714 8.65439C8.76662 8.5449 8.83002 8.39829 8.83338 8.24681C8.83674 8.09533 8.77978 7.95139 8.67505 7.84666L5.31042 4.48203L8.82764 0.964809C8.93713 0.855322 9.00053 0.708711 9.00389 0.557232C9.00724 0.405754 8.95029 0.261816 8.84556 0.157079C8.74082 0.052343 8.59688 -0.00461296 8.4454 -0.0012541C8.29392 0.00210475 8.14731 0.065504 8.03783 0.174991Z" fill="#222222"/>
</svg>
