<svg width="290" height="48" viewBox="0 0 301 48" fill="none" xmlns="http://www.w3.org/2000/svg">
<rect width="301" height="48" rx="10" fill="white"/>
<path d="M97.0654 26.7625V28.9725C97.0655 29.1307 97.0056 29.2831 96.8977 29.3989C96.7898 29.5146 96.642 29.5852 96.4842 29.5963C96.2111 29.615 95.9879 29.625 95.8154 29.625C90.2923 29.625 85.8154 25.1481 85.8154 19.625C85.8154 19.4525 85.8248 19.2294 85.8442 18.9563C85.8553 18.7984 85.9258 18.6506 86.0416 18.5428C86.1573 18.4349 86.3097 18.3749 86.4679 18.375H88.6779C88.7555 18.3749 88.8302 18.4037 88.8878 18.4556C88.9453 18.5076 88.9814 18.5791 88.9892 18.6563C89.0036 18.8 89.0167 18.9144 89.0292 19.0013C89.1534 19.8681 89.4079 20.7111 89.7842 21.5019C89.8436 21.6269 89.8048 21.7763 89.6923 21.8563L88.3436 22.82C89.1682 24.7415 90.6995 26.2728 92.6211 27.0975L93.5836 25.7513C93.6229 25.6962 93.6803 25.6568 93.7457 25.6398C93.8112 25.6228 93.8805 25.6293 93.9417 25.6581C94.7323 26.0337 95.5752 26.2876 96.4417 26.4113C96.5286 26.4237 96.6429 26.4375 96.7854 26.4513C96.8625 26.4591 96.9338 26.4954 96.9856 26.5529C97.0375 26.6104 97.0655 26.6851 97.0654 26.7625Z" fill="black"/>
<path d="M118.672 20.922H121.864V21.874H118.672V20.922ZM121.206 17.45H122.368V26.718H121.206V17.45ZM114.29 28.86H122.718V29.812H114.29V28.86ZM114.29 25.906H115.452V29.35H114.29V25.906ZM115.186 19.018H116.138V20.04C116.138 22.336 114.71 24.324 112.596 25.108L111.994 24.184C113.884 23.512 115.186 21.832 115.186 20.04V19.018ZM115.41 19.018H116.348V20.026C116.348 21.664 117.58 23.26 119.414 23.904L118.826 24.814C116.768 24.072 115.41 22.168 115.41 20.026V19.018ZM112.358 18.472H119.12V19.41H112.358V18.472ZM128.121 24.982H129.283V27.04H128.121V24.982ZM133.441 17.436H134.603V30.092H133.441V17.436ZM134.225 22.812H136.563V23.792H134.225V22.812ZM124.859 27.684L124.691 26.718C126.959 26.718 130.053 26.69 132.671 26.312L132.769 27.18C130.039 27.67 127.071 27.684 124.859 27.684ZM124.901 18.962H132.475V19.9H124.901V18.962ZM128.695 20.642C130.459 20.642 131.677 21.566 131.677 22.98C131.677 24.408 130.459 25.318 128.695 25.318C126.931 25.318 125.727 24.408 125.727 22.98C125.727 21.566 126.931 20.642 128.695 20.642ZM128.695 21.538C127.561 21.538 126.819 22.112 126.819 22.98C126.819 23.848 127.561 24.422 128.695 24.422C129.829 24.422 130.585 23.848 130.585 22.98C130.585 22.112 129.829 21.538 128.695 21.538ZM128.121 17.45H129.283V19.592H128.121V17.45ZM137.723 27.572H149.189V28.538H137.723V27.572ZM142.847 24.856H144.009V27.978H142.847V24.856ZM139.109 18.374H147.775V22.21H140.299V24.744H139.151V21.272H146.627V19.312H139.109V18.374ZM139.151 24.254H148.069V25.206H139.151V24.254ZM154.786 23.904H166.252V24.856H154.786V23.904ZM160.022 24.492H161.184V27.404H160.022V24.492ZM156.256 18.024H164.768V22.476H156.256V18.024ZM163.62 18.962H157.39V21.538H163.62V18.962ZM156.242 28.86H164.978V29.812H156.242V28.86ZM156.242 26.186H157.39V29.196H156.242V26.186ZM171.781 18.346C173.755 18.346 175.169 19.564 175.169 21.328C175.169 23.106 173.755 24.324 171.781 24.324C169.807 24.324 168.379 23.106 168.379 21.328C168.379 19.564 169.807 18.346 171.781 18.346ZM171.781 19.354C170.465 19.354 169.513 20.152 169.513 21.328C169.513 22.504 170.465 23.316 171.781 23.316C173.083 23.316 174.035 22.504 174.035 21.328C174.035 20.152 173.083 19.354 171.781 19.354ZM176.821 17.422H177.983V30.106H176.821V17.422ZM167.903 27.334L167.735 26.368C170.045 26.368 173.237 26.354 175.995 25.92L176.093 26.774C173.251 27.32 170.157 27.334 167.903 27.334ZM189.125 17.436H190.287V30.092H189.125V17.436ZM190.007 22.63H192.359V23.61H190.007V22.63ZM180.487 19.452H187.949V20.404H180.487V19.452ZM184.267 21.454C186.059 21.454 187.347 22.658 187.347 24.366C187.347 26.074 186.059 27.278 184.267 27.278C182.489 27.278 181.187 26.074 181.187 24.366C181.187 22.658 182.489 21.454 184.267 21.454ZM184.267 22.42C183.119 22.42 182.293 23.218 182.293 24.366C182.293 25.5 183.119 26.312 184.267 26.312C185.415 26.312 186.241 25.5 186.241 24.366C186.241 23.218 185.415 22.42 184.267 22.42ZM183.665 17.59H184.827V19.886H183.665V17.59ZM202.648 17.436H203.81V30.092H202.648V17.436ZM198.938 18.794H200.086C200.086 22.462 198.434 25.668 194.206 27.74L193.59 26.802C197.244 25.038 198.938 22.35 198.938 18.99V18.794ZM194.164 18.794H199.442V19.746H194.164V18.794Z" fill="#333334"/>
<rect x="0.5" y="0.5" width="300" height="47" rx="9.5" stroke="black" stroke-opacity="0.1"/>
</svg>
