<svg width="290" height="45" viewBox="0 0 301 45" fill="none" xmlns="http://www.w3.org/2000/svg">
<rect width="301" height="45" rx="10" fill="#FFEA2B"/>
<g clip-path="url(#clip0_224_758)">
<path fill-rule="evenodd" clip-rule="evenodd" d="M82.9408 16.8529C79.4613 16.8529 76.666 19.0233 76.666 21.6793C76.7195 22.5642 77.0206 23.4162 77.535 24.1383C78.0494 24.8604 78.7563 25.4233 79.5752 25.763L78.9766 27.9334C78.9484 27.9898 78.9766 28.0755 79.0331 28.1037C79.0905 28.1611 79.2044 28.1611 79.2618 28.1037L81.8001 26.419C82.171 26.4764 82.5418 26.5047 82.9408 26.5047C86.3921 26.5047 89.2157 24.3343 89.2157 21.6793C89.2157 19.0233 86.4204 16.8529 82.9408 16.8529Z" fill="#333334"/>
</g>
<path d="M113.402 17.252H114.536C114.536 20.906 113.304 24.266 108.768 26.52L108.138 25.624C112.142 23.65 113.402 20.822 113.402 17.378V17.252ZM108.824 17.252H114.088V18.19H108.824V17.252ZM113.22 20.388V21.284L108.376 21.76L108.194 20.724L113.22 20.388ZM116.58 15.922H117.756V28.592H116.58V15.922ZM117.434 21.06H119.772V22.026H117.434V21.06ZM126.281 17.252H127.415C127.415 20.906 126.183 24.266 121.647 26.52L121.017 25.624C125.021 23.65 126.281 20.822 126.281 17.378V17.252ZM121.703 17.252H126.967V18.19H121.703V17.252ZM126.099 20.388V21.284L121.255 21.76L121.073 20.724L126.099 20.388ZM129.459 15.922H130.635V28.592H129.459V15.922ZM130.313 21.06H132.651V22.026H130.313V21.06ZM138.908 23.09H140.07V26.24H138.908V23.09ZM139.496 16.762C142.17 16.762 144.088 18.064 144.088 20.08C144.088 22.096 142.17 23.398 139.496 23.398C136.822 23.398 134.89 22.096 134.89 20.08C134.89 18.064 136.822 16.762 139.496 16.762ZM139.496 17.686C137.48 17.686 136.01 18.638 136.01 20.08C136.01 21.522 137.48 22.474 139.496 22.474C141.498 22.474 142.968 21.522 142.968 20.08C142.968 18.638 141.498 17.686 139.496 17.686ZM133.784 26.016H145.25V26.982H133.784V26.016ZM146.663 26.072H158.129V27.038H146.663V26.072ZM151.787 23.356H152.949V26.478H151.787V23.356ZM148.049 16.874H156.715V20.71H149.239V23.244H148.091V19.772H155.567V17.812H148.049V16.874ZM148.091 22.754H157.009V23.706H148.091V22.754ZM163.725 22.404H175.191V23.356H163.725V22.404ZM168.961 22.992H170.123V25.904H168.961V22.992ZM165.195 16.524H173.707V20.976H165.195V16.524ZM172.559 17.462H166.329V20.038H172.559V17.462ZM165.181 27.36H173.917V28.312H165.181V27.36ZM165.181 24.686H166.329V27.696H165.181V24.686ZM180.72 16.846C182.694 16.846 184.108 18.064 184.108 19.828C184.108 21.606 182.694 22.824 180.72 22.824C178.746 22.824 177.318 21.606 177.318 19.828C177.318 18.064 178.746 16.846 180.72 16.846ZM180.72 17.854C179.404 17.854 178.452 18.652 178.452 19.828C178.452 21.004 179.404 21.816 180.72 21.816C182.022 21.816 182.974 21.004 182.974 19.828C182.974 18.652 182.022 17.854 180.72 17.854ZM185.76 15.922H186.922V28.606H185.76V15.922ZM176.842 25.834L176.674 24.868C178.984 24.868 182.176 24.854 184.934 24.42L185.032 25.274C182.19 25.82 179.096 25.834 176.842 25.834ZM198.065 15.936H199.227V28.592H198.065V15.936ZM198.947 21.13H201.299V22.11H198.947V21.13ZM189.427 17.952H196.889V18.904H189.427V17.952ZM193.207 19.954C194.999 19.954 196.287 21.158 196.287 22.866C196.287 24.574 194.999 25.778 193.207 25.778C191.429 25.778 190.127 24.574 190.127 22.866C190.127 21.158 191.429 19.954 193.207 19.954ZM193.207 20.92C192.059 20.92 191.233 21.718 191.233 22.866C191.233 24 192.059 24.812 193.207 24.812C194.355 24.812 195.181 24 195.181 22.866C195.181 21.718 194.355 20.92 193.207 20.92ZM192.605 16.09H193.767V18.386H192.605V16.09ZM211.588 15.936H212.75V28.592H211.588V15.936ZM207.878 17.294H209.026C209.026 20.962 207.374 24.168 203.146 26.24L202.53 25.302C206.184 23.538 207.878 20.85 207.878 17.49V17.294ZM203.104 17.294H208.382V18.246H203.104V17.294Z" fill="#333334"/>
<defs>
<clipPath id="clip0_224_758">
<rect width="16" height="16" fill="white" transform="translate(74.9404 14.5)"/>
</clipPath>
</defs>
</svg>
